<svg width="206" height="26" viewBox="0 0 206 26" fill="none" xmlns="http://www.w3.org/2000/svg">
<g clip-path="url(#clip0_3137_19436)">
<path d="M32.9624 25.5684C33.1446 25.4964 33.3269 25.4244 33.6644 25.2917C32.9534 25.1882 32.3796 25.1499 31.8284 25.0194C28.4174 24.2049 26.2056 22.1417 25.3304 18.8072C24.5744 15.9227 24.5384 13.0089 25.2584 10.0997C26.1831 6.36918 28.7076 4.32618 32.4494 3.57243C34.9424 3.07068 37.4331 3.14493 39.9216 3.60618C43.4294 4.25418 45.6749 6.53118 46.4646 10.3202C46.6941 11.4204 46.8224 12.5477 46.9191 13.6704C47.0406 15.0744 46.6806 15.4614 45.2541 15.4592C41.3639 15.4479 37.4736 15.4052 33.5834 15.3759C32.6609 15.3692 31.7406 15.3804 30.8204 15.3534C30.3029 15.3377 30.1139 15.5289 30.2354 16.0262C30.3951 16.6832 30.4806 17.3627 30.7101 17.9949C31.1736 19.2617 32.0601 20.1594 33.3764 20.6207C34.8884 21.1494 36.4364 21.2147 37.9844 20.8569C39.3029 20.5509 40.2906 19.7589 40.8261 18.5349C41.1006 17.9072 41.5214 17.6417 42.1649 17.6484C43.3416 17.6574 44.5206 17.6372 45.6929 17.7182C46.6379 17.7834 46.9191 18.2402 46.7369 19.1582C46.0394 22.6524 42.7341 25.2489 39.0644 25.1814C38.8619 25.1769 38.6571 25.1814 38.3174 25.1814C38.7674 25.3434 39.0936 25.4582 39.4199 25.5752H32.9646L32.9624 25.5684ZM41.2491 12.0054C41.2446 9.72843 40.0274 8.03418 38.0271 7.71243C36.8099 7.51668 35.5206 7.49193 34.2944 7.63593C32.0759 7.89693 30.8541 9.15468 30.3839 11.2899C30.2444 11.9267 30.4199 12.1314 31.0971 12.1224C34.1436 12.0819 37.1901 12.0909 40.2344 12.0752C40.5606 12.0752 40.8846 12.0302 41.2469 12.0054H41.2491Z" fill="#241811"/>
<path d="M140.697 25.5683C140.94 25.4986 141.183 25.4311 141.543 25.3276C140.681 25.1656 139.912 25.0778 139.176 24.8708C136.004 23.9776 133.99 21.9256 133.187 18.8116C132.437 15.9023 132.435 12.9638 133.124 10.0253C133.848 6.92935 135.828 4.9696 138.832 3.9841C142.027 2.9356 145.276 2.9806 148.509 3.81985C151.997 4.72435 153.686 7.1971 154.348 10.4821C154.564 11.5598 154.674 12.6646 154.76 13.7603C154.861 15.0518 154.467 15.4568 153.149 15.4501C148.694 15.4321 144.241 15.3938 139.786 15.3646C139.253 15.3601 138.719 15.3646 138.197 15.3646C137.867 17.7698 139.196 20.0648 141.487 20.6813C142.889 21.0593 144.306 21.1156 145.737 20.7871C147.067 20.4811 148.082 19.7723 148.628 18.5416C148.903 17.9228 149.319 17.6393 149.967 17.6461C151.22 17.6596 152.474 17.6731 153.725 17.7203C154.438 17.7473 154.712 18.1928 154.622 18.8476C154.4 20.4631 153.767 21.8941 152.494 22.9831C150.838 24.4006 148.914 25.1813 146.547 25.1746C146.819 25.3523 146.986 25.4626 147.152 25.5706H140.697V25.5683ZM149.087 12.0391C149.236 10.0276 148.064 8.1916 146.14 7.81585C144.79 7.5526 143.339 7.51435 141.971 7.6786C139.653 7.9576 138.287 9.62935 138.173 12.0391H149.087Z" fill="#241811"/>
<path d="M164.057 25.5685C164.374 25.4942 164.691 25.42 164.943 25.3592C163.953 25.1297 162.862 24.9857 161.854 24.6235C158.832 23.5345 157.586 21.3452 157.709 18.157C157.736 17.4482 158.132 17.1602 158.776 17.1467C160.004 17.1242 161.235 17.1152 162.461 17.1602C162.677 17.167 162.898 17.4505 163.085 17.635C163.163 17.7115 163.175 17.869 163.188 17.9905C163.379 19.732 164.266 20.8052 167.027 21.0257C168.352 21.1315 169.722 20.9425 171.047 20.7332C171.945 20.5892 172.629 20.0177 172.692 19.0052C172.755 17.9927 172.145 17.3492 171.275 17.0815C169.623 16.573 167.918 16.2332 166.25 15.7675C164.606 15.3085 162.959 14.845 161.357 14.2622C157.39 12.8177 157.082 9.04224 158.555 6.34675C158.96 5.60425 159.746 4.96075 160.508 4.52875C162.223 3.559 164.16 3.253 166.12 3.2035C168.68 3.1405 171.239 3.13825 173.702 4.018C176.213 4.9135 177.687 6.63925 178.135 9.21549C178.331 10.336 177.876 10.9075 176.722 10.9322C175.597 10.957 174.47 10.9412 173.342 10.9367C172.618 10.9345 172.172 10.669 172.019 9.88824C171.776 8.63274 170.831 7.99825 169.637 7.7215C168.12 7.3705 166.592 7.37274 165.085 7.80699C163.987 8.12199 163.519 8.59449 163.481 9.47199C163.442 10.3765 164.063 10.8647 164.822 11.0987C166.158 11.5082 167.524 11.83 168.883 12.1585C170.642 12.5815 172.427 12.9212 174.17 13.3982C176.445 14.0192 177.863 15.457 178.184 17.8195C178.535 20.3867 177.786 22.4837 175.455 23.881C173.99 24.7585 172.393 25.2197 170.456 25.1612C170.854 25.3592 171.063 25.465 171.275 25.5707H164.052L164.057 25.5685Z" fill="#241811"/>
<path d="M187.418 25.5682C187.735 25.4939 188.053 25.4197 188.37 25.3454C188.356 25.3882 188.345 25.4309 188.332 25.4714C186.964 25.0507 185.524 24.7784 184.243 24.1777C181.649 22.9582 180.884 20.5237 181.096 17.9362C181.143 17.3534 181.579 17.1689 182.054 17.1577C183.334 17.1217 184.615 17.1262 185.895 17.1599C186.077 17.1644 186.277 17.3962 186.419 17.5649C186.509 17.6684 186.527 17.8462 186.545 17.9947C186.75 19.8577 187.859 20.8364 190.386 21.0367C191.641 21.1357 192.946 21.0299 194.191 20.8094C195.444 20.5867 196.011 19.8914 196.056 19.0072C196.103 18.0869 195.649 17.3849 194.422 16.9979C192.847 16.5007 191.203 16.2127 189.607 15.7717C187.963 15.3149 186.313 14.8492 184.711 14.2664C180.646 12.7882 180.497 8.85744 181.966 6.19569C182.605 5.03694 183.73 4.49019 184.918 4.04694C187.42 3.11319 190.037 3.04344 192.643 3.25944C194.256 3.39444 195.898 3.68694 197.424 4.20219C199.834 5.01669 201.127 6.85719 201.492 9.31644C201.638 10.3019 201.238 10.8577 200.25 10.9027C198.999 10.9612 197.741 10.9229 196.488 10.9162C195.901 10.9117 195.532 10.6372 195.424 10.0477C195.19 8.75169 194.312 8.05644 193.081 7.75044C191.486 7.35444 189.886 7.37694 188.307 7.84719C187.49 8.09019 186.88 8.55144 186.838 9.46494C186.797 10.3334 187.375 10.8352 188.104 11.0647C189.463 11.4899 190.852 11.8207 192.238 12.1559C193.997 12.5834 195.781 12.9209 197.527 13.3934C199.804 14.0122 201.226 15.4477 201.548 17.8102C201.899 20.3797 201.152 22.4789 198.819 23.8762C197.354 24.7537 195.761 25.2352 193.788 25.1429C194.218 25.3589 194.427 25.4624 194.638 25.5682C192.231 25.5682 189.823 25.5682 187.416 25.5682H187.418Z" fill="#241811"/>
<path d="M74.3038 25.5682C74.6188 25.4894 74.9361 25.4107 75.0576 25.3792C74.0068 25.0822 72.7288 24.8684 71.5813 24.3667C68.8948 23.1967 67.2928 21.0637 66.6718 18.2917C66.0508 15.5152 66.1116 12.7049 66.7686 9.93294C67.6168 6.35544 69.9546 4.26969 73.6108 3.56994C76.3603 3.04344 79.1121 3.09519 81.8481 3.63744C85.1241 4.28544 87.2256 6.26094 88.1008 9.37494C88.9986 12.5699 89.0391 15.8099 88.1346 19.0319C87.0456 22.9087 83.0383 25.3972 79.5171 25.1812C79.9558 25.3387 80.2798 25.4534 80.6061 25.5682H74.3038ZM83.2948 14.4734C83.2161 13.5487 83.1778 12.6194 83.0518 11.7037C82.7931 9.81593 81.6343 8.43669 79.7196 8.15094C78.2548 7.93269 76.7068 7.95294 75.2376 8.15094C73.5523 8.37819 72.4633 9.50319 72.0696 11.1434C71.6263 12.9907 71.5386 14.8739 71.8941 16.7437C72.2226 18.4672 72.9763 19.9409 74.8438 20.5462C76.3131 21.0232 77.8183 21.0434 79.3168 20.7554C81.5533 20.3279 82.7458 19.0882 83.0878 16.8719C83.2093 16.0822 83.2296 15.2767 83.2948 14.4734Z" fill="#241811"/>
<path d="M204.998 3.04145C205.081 2.80295 205.171 2.56445 205.247 2.3237C205.403 1.8422 205.553 1.35845 205.704 0.876953V3.13595C205.468 3.10445 205.229 3.07295 204.993 3.04145H204.995H204.998Z" fill="#241811"/>
<path d="M11.7991 0.568825C12.4899 0.568825 13.1806 0.562075 13.8714 0.568825C15.1989 0.584575 15.4486 0.762325 15.8694 1.98407C17.9304 7.98257 19.9869 13.9811 22.0501 19.9773C22.4821 21.2328 22.9321 22.4838 23.3709 23.7371C23.7444 24.8058 23.4159 25.2266 22.2504 25.2221C21.3571 25.2176 20.4616 25.2221 19.5684 25.2446C18.5064 25.2716 18.2679 25.1501 17.9034 24.1848C17.4871 23.0823 17.0911 21.9731 16.7244 20.8526C16.5916 20.4521 16.4026 20.3171 15.9616 20.3216C13.1469 20.3486 10.3321 20.3576 7.51963 20.3328C7.01338 20.3283 6.84463 20.5758 6.71188 20.9538C6.33163 22.0428 5.93338 23.1251 5.57788 24.2208C5.33263 24.9768 4.88938 25.3121 4.04788 25.2513C3.15913 25.1861 2.26138 25.2288 1.36588 25.2446C0.0991339 25.2671 -0.247366 24.8238 0.162134 23.6291C2.66638 16.3526 5.17288 9.07607 7.68388 1.80182C8.03938 0.773575 8.29138 0.600325 9.41863 0.573325C10.2106 0.555325 11.0049 0.568825 11.7991 0.568825ZM11.8914 6.02057C11.7901 6.03407 11.6911 6.04757 11.5899 6.06107C10.4964 9.29207 9.40513 12.5253 8.29588 15.8036H15.1764C14.0604 12.4848 12.9759 9.25157 11.8891 6.02057H11.8914Z" fill="#241811"/>
<path d="M97.5107 16.2669C97.5107 18.6136 97.5107 20.8906 97.5084 23.1699C97.5084 23.4691 97.5084 23.7751 97.4522 24.0676C97.2834 24.9361 96.9414 25.2219 96.0369 25.2196C95.1437 25.2196 94.2504 25.1836 93.3594 25.1476C92.6979 25.1206 92.4234 24.7381 92.4122 24.1126C92.3987 23.2351 92.3379 22.3576 92.3379 21.4824C92.3334 15.0631 92.3379 8.64387 92.3424 2.22238C92.3424 1.00063 92.6574 0.586626 93.8162 0.588876C98.1137 0.604626 102.418 0.559626 106.709 0.757626C110.237 0.921876 112.797 3.03688 113.555 6.04963C114.03 7.94187 113.967 9.84762 113.29 11.6791C112.266 14.4489 109.971 15.7516 107.186 16.0374C104.474 16.3164 101.723 16.2061 98.9867 16.2624C98.5299 16.2714 98.0732 16.2624 97.5107 16.2624V16.2669ZM97.5557 11.9379C100.238 11.9379 102.818 11.9536 105.399 11.9289C106.265 11.9199 107.071 11.6544 107.654 10.9749C108.639 9.82962 108.747 8.52687 108.261 7.16337C107.793 5.84938 106.673 5.35438 105.39 5.27113C103.658 5.15863 101.918 5.16538 100.181 5.13388C99.3197 5.11813 98.4579 5.13163 97.5557 5.13163V11.9356V11.9379Z" fill="#241811"/>
<path d="M55.8518 3.34296C55.6021 4.95846 55.3681 6.47946 55.1341 8.00046C55.2128 8.07021 55.2938 8.14221 55.3726 8.21196C55.4288 8.05671 55.4648 7.89021 55.5436 7.74846C55.7416 7.39746 55.9486 7.05321 56.1691 6.71346C57.9353 3.98871 60.3743 3.09771 64.0733 3.36096C65.3131 3.44871 65.5403 3.85596 65.3918 5.06196C65.3198 5.63346 65.2006 6.19821 65.0881 6.76296C64.8923 7.73046 64.6246 7.98021 63.6098 8.07021C62.9483 8.12871 62.2711 8.06346 61.6208 8.17146C58.5833 8.67096 56.5606 10.768 56.1938 13.9562C56.0116 15.5425 56.0903 17.1557 56.0656 18.7577C56.0431 20.4115 56.0498 22.0675 56.0251 23.7235C56.0071 24.9205 55.6403 25.249 54.4478 25.2287C53.7323 25.2175 53.0168 25.2197 52.3013 25.2287C50.9783 25.2467 50.6116 24.9655 50.5981 23.6807C50.5531 19.4687 50.5463 15.2545 50.5306 11.0425C50.5238 9.13671 50.5216 7.23096 50.5306 5.32521C50.5373 3.56796 50.7331 3.37221 52.4948 3.34971C53.5433 3.33621 54.5918 3.34746 55.8518 3.34746V3.34296Z" fill="#241811"/>
<path d="M122.256 3.34975C121.991 4.9585 121.73 6.53125 121.469 8.10625C121.525 8.12425 121.579 8.14225 121.635 8.1625C121.934 7.681 122.229 7.19725 122.535 6.72025C124.304 3.973 127.049 2.983 130.581 3.4105C131.72 3.54775 131.884 3.8605 131.767 4.99225C131.708 5.56375 131.596 6.13075 131.481 6.6955C131.274 7.72375 130.97 7.9915 129.89 8.07475C129.278 8.122 128.655 8.068 128.054 8.16025C124.934 8.6485 122.969 10.5903 122.587 13.7875C122.355 15.7203 122.382 17.6845 122.33 19.6353C122.292 21.1135 122.333 22.594 122.297 24.0722C122.274 24.9475 122.011 25.1815 121.129 25.2062C120.236 25.231 119.34 25.2422 118.445 25.2175C117.29 25.186 117.05 24.9475 116.987 23.8382C116.948 23.1385 116.926 22.4342 116.926 21.7345C116.919 16.1703 116.917 10.6038 116.924 5.0395C116.924 3.577 117.117 3.38575 118.593 3.3565C119.743 3.334 120.895 3.352 122.254 3.352L122.256 3.34975Z" fill="#241811"/>
<path d="M204.995 3.04151C205.061 3.55001 204.37 4.216 203.749 4.144C202.934 4.04951 202.264 3.69851 201.854 2.92451C201.492 2.23826 201.701 1.66901 202.088 1.10651C202.678 0.247006 204.543 0.197506 205.002 1.01426C204.496 1.01426 203.958 1.11326 203.479 0.991756C202.786 0.814006 202.412 1.23701 202.183 1.64426C202.016 1.94126 202.118 2.47001 202.266 2.83226C202.536 3.48926 203.555 4.04275 204.039 3.81326C204.401 3.64226 204.683 3.30476 205 3.04151H204.998H204.995Z" fill="#241811"/>
<path d="M203.895 1.34473C204.669 1.84423 204.136 2.48773 204.302 3.07723C203.729 2.72173 203.594 2.14423 203.895 1.34473Z" fill="#241811"/>
<path d="M202.891 2.99191C202.815 2.53066 202.741 2.06716 202.642 1.46191C203.384 1.92991 203.29 2.42716 203.107 2.94466C203.035 2.96041 202.963 2.97391 202.891 2.98966V2.99191Z" fill="#241811"/>
</g>
<defs>
<clipPath id="clip0_3137_19436">
<rect width="205.706" height="25.137" fill="white" transform="translate(0 0.431396)"/>
</clipPath>
</defs>
</svg>
